<svg xmlns="http://www.w3.org/2000/svg" xmlns:xlink="http://www.w3.org/1999/xlink" viewBox="0 0 350 330">


  <g opacity="0">
    <path d="M106.58,161.87l-2.19,3.79a1.34,1.34,0,0,0,1.17,2h4.37a1.34,1.34,0,0,0,1.16-2l-2.18-3.79a1.35,1.35,0,0,0-2.33,0" fill="#fff"/>
    <path d="M107.74,79.42a32.91,32.91,0,0,1,32.9,32.89c0,18.17-15.09,48.89-33.25,48.89s-32.55-30.73-32.55-48.89a32.91,32.91,0,0,1,32.9-32.89m0-1.61a34.54,34.54,0,0,0-34.5,34.5c0,9.51,3.8,22.1,9.68,32.07,7,11.88,15.68,18.42,24.46,18.42s17.6-6.54,24.81-18.4c6.1-10,10.05-22.64,10.05-32.09a34.54,34.54,0,0,0-34.5-34.5" fill="#fff"/>
    <path d="M96.06,112.39c0-18.16,5.23-32.89,11.68-32.89a32.91,32.91,0,0,0-32.9,32.89c0,18.17,14.38,48.89,32.55,48.89h0.17c-6.43-.19-11.5-30.77-11.5-48.89" fill="#76abff"/>
    <path d="M140.64,112.39a32.91,32.91,0,0,0-32.9-32.89c6.45,0,11.68,14.73,11.68,32.89s-5.29,48.48-11.68,48.87c18-.39,32.9-30.82,32.9-48.87" fill="#1553b7"/>
    <path d="M119.42,112.39c0-18.16-5.23-32.89-11.68-32.89S96.06,94.23,96.06,112.39s5.07,48.69,11.5,48.89h0.18c6.39-.4,11.68-30.83,11.68-48.88" fill="#3b7bf2"/>
    <path d="M100.54,105.36a5.7,5.7,0,1,0,5.7,5.7,5.39,5.39,0,0,0-5.7-5.7m0,8c-1.86,0-3.06-.93-3.06-2.29s1.21-2.29,3.06-2.29,3.07,0.93,3.07,2.29-1.25,2.29-3.07,2.29" fill="#fff"/>
    <path d="M114.74,105.36a1.78,1.78,0,0,1,1.46,2.8L102.87,127.5a1.79,1.79,0,0,1-2.94-2l13.34-19.34a1.77,1.77,0,0,1,1.47-.77" fill="#fff"/>
    <path d="M116.21,116.88a5.7,5.7,0,1,0,5.7,5.7,5.4,5.4,0,0,0-5.7-5.7m0,8c-1.86,0-3.06-.93-3.06-2.29s1.21-2.29,3.06-2.29,3.07,0.9,3.07,2.29-1.21,2.29-3.07,2.29" fill="#fff"/>
  </g>

  <g opacity="1">
    <path d="M279.2,183.8A4.89,4.89,0,0,1,283,179h0l21.07-5.4c-7.78,14.84-19.18,15.07-20,15.07h0a4.9,4.9,0,0,1-4.85-4.9" fill="#fff"/>
    <path d="M262.24,169.86l10.76,0a4.65,4.65,0,0,1,4.41-2.9,3.91,3.91,0,0,1,3.48,1.76,13.39,13.39,0,0,1,1.37,2.59c0.63,1.57,4,15.8,5.89,19.16,1.1,2,4.39,7.16,4.39,7.16a2.3,2.3,0,0,1,.31,1.15V208s-3.11-1.08-3.11-3.91v-6.53c-1.91.27-6-1.65-8.33-2.88a12.82,12.82,0,0,1-6.36-6.76,12.33,12.33,0,0,1-.11-9.16,7.13,7.13,0,0,0,.79-2.91c-0.06-1.14-1.39-2.72-2.18-4.05Z" fill="#fff"/>
  </g>


</svg>
